<?xml version="1.0" encoding="utf-8"?>
<!-- Generator: Adobe Illustrator 16.0.0, SVG Export Plug-In . SVG Version: 6.00 Build 0)  -->
<!DOCTYPE svg PUBLIC "-//W3C//DTD SVG 1.1//EN" "http://www.w3.org/Graphics/SVG/1.1/DTD/svg11.dtd">
<svg version="1.1" id="Layer_1" xmlns="http://www.w3.org/2000/svg" xmlns:xlink="http://www.w3.org/1999/xlink" x="0px" y="0px"
	 width="352.206px" height="467.239px" viewBox="0 0 352.206 467.239" enable-background="new 0 0 352.206 467.239"
	 xml:space="preserve">
<g>
	<path fill="none" stroke="#4269B0" stroke-miterlimit="10" d="M147.198,357.836c-14.655,0-22.796-9.229-23.882-19.813
		c-6.514,11.397-22.798,21.168-42.88,21.168c-33.651,0-51.02-21.168-51.02-44.232c0-26.867,20.897-42.34,47.762-44.237l41.522-2.984
		v-8.688c0-13.293-4.612-22.25-23.882-22.25c-15.739,0-24.968,7.054-25.781,20.082H36.202c1.898-31.751,27.135-45.863,58.617-45.863
		c24.155,0,44.779,7.598,52.92,28.768c3.527,8.952,4.069,18.993,4.069,28.494v52.377c0,6.514,2.174,8.957,7.873,8.957
		c2.17,0,4.34-0.542,4.34-0.542v24.969C158.323,356.477,155.338,357.836,147.198,357.836z M118.702,292.974L82.88,295.69
		c-10.312,0.812-20.355,7.056-20.355,18.452c0,10.854,9.499,17.638,20.082,17.638c21.17,0,36.095-11.396,36.095-32.292V292.974
		L118.702,292.974z"/>
	<line fill="none" stroke="#C05E61" stroke-miterlimit="10" x1="36.202" y1="269.608" x2="36.202" y2="200.667"/>
	<line fill="none" stroke="#C05E61" stroke-miterlimit="10" x1="23.476" y1="256.881" x2="92.416" y2="256.881"/>
	<path fill="none" stroke="#4269B0" stroke-miterlimit="10" d="M57.946,243.26c7.688-16.927,26.106-19.87,38.773-20.314
		c12.668-0.444,39.956,0.834,39.956,46.662s0,46.147,0,57.964c0,11.815,15.825,24.91,29.877,10.22"/>
	<path fill="none" d="M136.675,278.709c-32.718,1.916-86.73-0.958-89.266,32.575c-2.534,33.532,40.898,39.92,62.296,22.994
		c21.397-16.927,26.97-26.827,26.97-29.382"/>
	<g>
		<g>
			<g>
				<line fill="none" stroke="#1D1D1B" stroke-width="0.1" x1="132.578" y1="240.581" x2="132.578" y2="240.278"/>
				
					<line fill="none" stroke="#1D1D1B" stroke-width="0.1" stroke-dasharray="0.9976,0.9976" x1="132.578" y1="239.673" x2="132.578" y2="11.426"/>
				<line fill="none" stroke="#1D1D1B" stroke-width="0.1" x1="132.578" y1="11.124" x2="132.578" y2="10.821"/>
				<g>
					<rect x="132.282" y="240.536" fill="#1D1D1B" width="0.591" height="0.091"/>
				</g>
				<g>
					<rect x="132.282" y="10.775" fill="#1D1D1B" width="0.591" height="0.091"/>
				</g>
			</g>
		</g>
		<g>
			<path fill="none" d="M257.165,72.223"/>
		</g>
		<g>
			<path fill="none" d="M87.989,237.825"/>
		</g>
		<g>
			<g>
				<line fill="none" stroke="#1D1D1B" stroke-width="0.1" x1="222.338" y1="118.655" x2="222.035" y2="118.655"/>
				
					<line fill="none" stroke="#1D1D1B" stroke-width="0.1" stroke-dasharray="1.0019,1.0019" x1="221.427" y1="118.655" x2="48.062" y2="118.655"/>
				<line fill="none" stroke="#1D1D1B" stroke-width="0.1" x1="47.758" y1="118.655" x2="47.456" y2="118.655"/>
				<g>
					<rect x="222.292" y="118.36" fill="#1D1D1B" width="0.092" height="0.591"/>
				</g>
				<g>
					<rect x="47.41" y="118.36" fill="#1D1D1B" width="0.091" height="0.591"/>
				</g>
			</g>
		</g>
		<g>
			<path fill="none" d="M47.41,191.153"/>
		</g>
		<g>
			<path fill="none" d="M222.383,191.153"/>
		</g>
		<g>
			<g>
				<line fill="none" stroke="#1D1D1B" stroke-width="0.1" x1="222.338" y1="229.42" x2="222.035" y2="229.42"/>
				
					<line fill="none" stroke="#1D1D1B" stroke-width="0.1" stroke-dasharray="1.0019,1.0019" x1="221.427" y1="229.42" x2="48.062" y2="229.42"/>
				<line fill="none" stroke="#1D1D1B" stroke-width="0.1" x1="47.758" y1="229.42" x2="47.456" y2="229.42"/>
				<g>
					<rect x="222.292" y="229.125" fill="#1D1D1B" width="0.092" height="0.591"/>
				</g>
				<g>
					<rect x="47.41" y="229.125" fill="#1D1D1B" width="0.091" height="0.591"/>
				</g>
			</g>
		</g>
		<g>
			<g>
				<line fill="none" stroke="#1D1D1B" stroke-width="0.1" x1="222.338" y1="29.463" x2="222.035" y2="29.463"/>
				
					<line fill="none" stroke="#1D1D1B" stroke-width="0.1" stroke-dasharray="1.0019,1.0019" x1="221.427" y1="29.463" x2="48.062" y2="29.463"/>
				<line fill="none" stroke="#1D1D1B" stroke-width="0.1" x1="47.758" y1="29.463" x2="47.456" y2="29.463"/>
				<g>
					<rect x="222.292" y="29.167" fill="#1D1D1B" width="0.092" height="0.592"/>
				</g>
				<g>
					<rect x="47.41" y="29.167" fill="#1D1D1B" width="0.091" height="0.592"/>
				</g>
			</g>
		</g>
		<g>
			<g>
				<line fill="none" stroke="#1D1D1B" stroke-width="0.1" x1="222.338" y1="179.303" x2="222.035" y2="179.303"/>
				
					<line fill="none" stroke="#1D1D1B" stroke-width="0.1" stroke-dasharray="1.0019,1.0019" x1="221.427" y1="179.303" x2="48.062" y2="179.303"/>
				<line fill="none" stroke="#1D1D1B" stroke-width="0.1" x1="47.758" y1="179.303" x2="47.456" y2="179.303"/>
				<g>
					<rect x="222.292" y="179.008" fill="#1D1D1B" width="0.092" height="0.59"/>
				</g>
				<g>
					<rect x="47.41" y="179.008" fill="#1D1D1B" width="0.091" height="0.59"/>
				</g>
			</g>
		</g>
		<g>
			<g>
				<line fill="none" stroke="#1D1D1B" stroke-width="0.1" x1="222.338" y1="93.672" x2="222.035" y2="93.672"/>
				
					<line fill="none" stroke="#1D1D1B" stroke-width="0.1" stroke-dasharray="1.0019,1.0019" x1="221.427" y1="93.672" x2="48.062" y2="93.672"/>
				<line fill="none" stroke="#1D1D1B" stroke-width="0.1" x1="47.758" y1="93.672" x2="47.456" y2="93.672"/>
				<g>
					<rect x="222.292" y="93.376" fill="#1D1D1B" width="0.092" height="0.591"/>
				</g>
				<g>
					<rect x="47.41" y="93.376" fill="#1D1D1B" width="0.091" height="0.591"/>
				</g>
			</g>
		</g>
		<path fill="#C05E61" d="M201.162,104.11c0,23.351-7.341,43.699-20.671,57.294c-11.61,11.907-27.438,18.202-45.771,18.202
			c-22.49,0-41.099-9.404-52.396-26.478c-8.624-12.94-12.471-26.922-12.471-45.331c0-1.455,0.023-2.976,0.071-4.52
			c0.002-0.068,0.273-6.618,0.273-9.596v-0.304h95.51c0.208-10.772-3.695-21.091-10.341-27.472
			c-6.108-5.769-13.148-8.695-20.922-8.695c-9.854,0-15.835,1.962-20.643,6.773c-3.324,3.319-5.543,7.224-6.781,11.935l-0.06,0.226
			h-33.5l0.031-0.332c0.85-8.773,6.891-20.207,12.145-26.512c10.992-12.989,28.13-20.142,48.26-20.142
			c17.941,0,32.731,5.772,45.215,17.647C193.332,60.482,201.162,80.832,201.162,104.11z M70.458,107.798
			c0,18.282,3.814,32.159,12.369,44.995c11.182,16.9,29.61,26.207,51.892,26.207c18.165,0,33.843-6.231,45.338-18.02
			c13.219-13.483,20.498-33.68,20.498-56.871c0-23.112-7.764-43.307-21.861-56.863c-12.365-11.762-27.019-17.479-44.798-17.479
			c-19.948,0-36.922,7.076-47.796,19.925c-5.127,6.153-11.015,17.241-11.97,25.848h32.363c1.278-4.717,3.53-8.639,6.879-11.982
			c4.933-4.938,11.038-6.951,21.071-6.951c7.933,0,15.113,2.982,21.34,8.863c6.697,6.429,10.537,16.309,10.537,27.105
			c0,0,0-0.001,0,0c0,0.371-0.005,0.743-0.015,1.115l-0.007,0.295H70.803c-0.017,3.107-0.271,9.253-0.273,9.315
			C70.482,104.835,70.458,106.35,70.458,107.798z M166.592,118.352l-0.01,0.312c-0.277,9.369-2.513,16.07-7.475,22.406
			c-5.289,7.052-14.08,11.099-24.114,11.099c-9.183,0-16.756-2.882-21.901-8.334c-5.612-6.169-8.594-14.636-8.864-25.172
			l-0.008-0.311H166.592L166.592,118.352z M104.842,118.958c0.317,10.241,3.242,18.472,8.694,24.465
			c5.024,5.323,12.445,8.14,21.457,8.14c9.842,0,18.456-3.959,23.634-10.861c4.824-6.161,7.027-12.677,7.341-21.743H104.842z"/>
		<path fill="#C05E61" d="M156.36,190.85l-23.755,38.873H95.981l39.401-38.873H156.36z M132.264,229.118l23.015-37.66H135.63
			l-38.172,37.66H132.264L132.264,229.118z"/>
		<path fill="#1D1D1B" d="M189.481,106.674l-0.001,0.151l-2.003-0.013c-0.117,3.914-0.426,7.962-0.928,12.137
			c-1.71,14.254-8.018,26.843-17.76,35.449c-4.913,4.34-10.566,7.589-16.803,9.652c-6.482,2.147-13.467,2.967-20.756,2.436
			c-15.4-1.123-27.974-7.898-36.36-19.594c-3.86-5.384-6.769-11.698-8.646-18.77c-1.825-6.88-2.63-14.301-2.392-22.055l0.003-0.073
			h0.074l103.419,0.665c0.3-10.538-0.788-20.092-3.263-28.522c-4.187-14.262-12.299-24.894-24.11-31.6
			c-11.452-6.502-24.992-8.176-38.128-4.718c-6.33,1.667-12.209,4.434-17.473,8.222c-5.427,3.905-9.938,8.716-13.405,14.298
			l-0.129-0.081c3.479-5.598,8.003-10.423,13.445-14.34c5.279-3.8,11.175-6.574,17.523-8.245
			c13.173-3.469,26.754-1.788,38.241,4.733c11.847,6.726,19.982,17.387,24.181,31.688c2.479,8.445,3.567,18.014,3.269,28.566
			L189.481,106.674z M83.946,108.717c0,6.784,0.813,13.288,2.427,19.368c1.871,7.053,4.772,13.351,8.621,18.719
			c8.36,11.658,20.895,18.412,36.248,19.531c7.27,0.53,14.233-0.286,20.697-2.427c6.217-2.059,11.853-5.295,16.75-9.623
			c9.714-8.582,16.005-21.138,17.71-35.354c0.501-4.17,0.81-8.212,0.926-12.12l-103.341-0.664
			C83.958,107.008,83.946,107.866,83.946,108.717z"/>
		
			<rect x="109.866" y="210.399" transform="matrix(-0.7765 0.6301 -0.6301 -0.7765 362.9403 292.2313)" fill="#1D1D1B" width="39.567" height="0.151"/>
		<path fill="none" stroke="#1D1D1B" stroke-width="0.5" stroke-dasharray="3" d="M132.435,229.42"/>
		<g>
			<rect x="34.82" y="183.544" fill="#1D1D1B" width="0.061" height="45.515"/>
			<g>
				<polygon fill="#1D1D1B" points="35.075,228.888 34.85,228.984 34.625,228.888 34.85,229.42 				"/>
			</g>
			<g>
				<polygon fill="#1D1D1B" points="35.075,183.714 34.85,183.62 34.625,183.714 34.85,183.182 				"/>
			</g>
		</g>
		<g>
			<rect x="34.82" y="29.826" fill="#1D1D1B" width="0.061" height="63.484"/>
			<g>
				<polygon fill="#1D1D1B" points="35.075,93.14 34.85,93.236 34.625,93.14 34.85,93.672 				"/>
			</g>
			<g>
				<polygon fill="#1D1D1B" points="35.075,29.996 34.85,29.9 34.625,29.996 34.85,29.463 				"/>
			</g>
		</g>
		<g>
			<rect x="34.82" y="119.335" fill="#1D1D1B" width="0.061" height="59.606"/>
			<g>
				<polygon fill="#1D1D1B" points="35.075,178.772 34.85,178.867 34.625,178.772 34.85,179.303 				"/>
			</g>
			<g>
				<polygon fill="#1D1D1B" points="35.075,119.506 34.85,119.411 34.625,119.506 34.85,118.974 				"/>
			</g>
		</g>
		<g>
			<rect x="34.82" y="97.734" fill="#1D1D1B" width="0.061" height="17.247"/>
			<g>
				<polygon fill="#1D1D1B" points="35.075,114.811 34.85,114.906 34.625,114.811 34.85,115.343 				"/>
			</g>
			<g>
				<polygon fill="#1D1D1B" points="35.075,97.904 34.85,97.809 34.625,97.904 34.85,97.372 				"/>
			</g>
		</g>
		<g>
			<path fill="#1D1D1B" d="M26.076,201.775c-0.513,0-0.796-0.19-0.796-0.524c0-0.295,0.276-0.494,0.774-0.5
				c0.506,0,0.785,0.219,0.785,0.525C26.839,201.593,26.556,201.775,26.076,201.775z M26.052,200.955
				c-0.393,0-0.615,0.12-0.615,0.307c0,0.209,0.244,0.31,0.629,0.31c0.372,0,0.615-0.096,0.615-0.307
				C26.681,201.084,26.463,200.955,26.052,200.955z"/>
			<path fill="#1D1D1B" d="M25.019,201.894c0.137,0.051,0.386,0.114,0.555,0.139l0.023,0.228c-0.197-0.054-0.455-0.155-0.564-0.221
				L25.019,201.894z"/>
			<path fill="#1D1D1B" d="M25.304,203.073h0.411v-0.701h0.135l0.963,0.673v0.221h-0.938v0.212h-0.161v-0.212h-0.41V203.073
				L25.304,203.073z M25.875,203.073h0.504c0.079,0,0.157,0.002,0.237,0.007v-0.007c-0.089-0.047-0.153-0.084-0.224-0.126
				l-0.513-0.368h-0.005V203.073z"/>
		</g>
		<g>
			<path fill="#1D1D1B" d="M26.076,144.189c-0.513,0-0.796-0.19-0.796-0.525c0-0.294,0.276-0.493,0.774-0.498
				c0.506,0,0.785,0.218,0.785,0.524C26.839,144.007,26.556,144.189,26.076,144.189z M26.052,143.37
				c-0.393,0-0.615,0.12-0.615,0.307c0,0.209,0.244,0.309,0.629,0.309c0.372,0,0.615-0.095,0.615-0.307
				C26.681,143.5,26.463,143.37,26.052,143.37z"/>
			<path fill="#1D1D1B" d="M25.019,144.308c0.137,0.051,0.386,0.114,0.555,0.139l0.023,0.228c-0.197-0.054-0.455-0.155-0.564-0.22
				L25.019,144.308z"/>
			<path fill="#1D1D1B" d="M26.669,145.716c0.002-0.041,0-0.094-0.01-0.152c-0.053-0.32-0.287-0.49-0.536-0.524v0.007
				c0.096,0.072,0.174,0.197,0.174,0.365c0,0.267-0.192,0.455-0.487,0.455c-0.276,0-0.531-0.188-0.531-0.502
				c0-0.322,0.251-0.534,0.644-0.534c0.297,0,0.531,0.107,0.681,0.256c0.122,0.125,0.199,0.292,0.223,0.482
				c0.009,0.061,0.012,0.112,0.012,0.148L26.669,145.716L26.669,145.716z M25.799,145.659c0.216,0,0.345-0.123,0.345-0.312
				c0-0.123-0.076-0.236-0.186-0.292c-0.022-0.014-0.053-0.022-0.09-0.022c-0.249,0.004-0.432,0.118-0.432,0.331
				C25.437,145.541,25.583,145.659,25.799,145.659z"/>
		</g>
		<g>
			<path fill="#1D1D1B" d="M26.076,56.944c-0.513,0-0.796-0.19-0.796-0.524c0-0.295,0.276-0.494,0.774-0.499
				c0.506,0,0.785,0.218,0.785,0.524C26.839,56.762,26.556,56.944,26.076,56.944z M26.052,56.125c-0.393,0-0.615,0.12-0.615,0.307
				c0,0.209,0.244,0.31,0.629,0.31c0.372,0,0.615-0.096,0.615-0.307C26.681,56.254,26.463,56.125,26.052,56.125z"/>
			<path fill="#1D1D1B" d="M25.019,57.063c0.137,0.051,0.386,0.114,0.555,0.139l0.023,0.228c-0.197-0.054-0.455-0.155-0.564-0.22
				L25.019,57.063z"/>
			<path fill="#1D1D1B" d="M26.669,58.472c0.002-0.042,0-0.095-0.01-0.153c-0.053-0.32-0.287-0.49-0.536-0.524v0.007
				c0.096,0.072,0.174,0.197,0.174,0.365c0,0.267-0.192,0.455-0.487,0.455c-0.276,0-0.531-0.188-0.531-0.502
				c0-0.322,0.251-0.534,0.644-0.534c0.297,0,0.531,0.107,0.681,0.256c0.122,0.126,0.199,0.292,0.223,0.483
				c0.009,0.06,0.012,0.111,0.012,0.147H26.669L26.669,58.472z M25.799,58.414c0.216,0,0.345-0.122,0.345-0.311
				c0-0.123-0.076-0.237-0.186-0.292c-0.022-0.015-0.053-0.023-0.09-0.023c-0.249,0.004-0.432,0.118-0.432,0.331
				C25.437,58.295,25.583,58.414,25.799,58.414z"/>
		</g>
		<g>
			<path fill="#1D1D1B" d="M26.076,102.169c-0.513,0-0.796-0.19-0.796-0.524c0-0.295,0.276-0.494,0.774-0.499
				c0.506,0,0.785,0.218,0.785,0.524C26.839,101.989,26.556,102.169,26.076,102.169z M26.052,101.35
				c-0.393,0-0.615,0.121-0.615,0.307c0,0.209,0.244,0.31,0.629,0.31c0.372,0,0.615-0.096,0.615-0.307
				C26.681,101.48,26.463,101.35,26.052,101.35z"/>
			<path fill="#1D1D1B" d="M25.019,102.29c0.137,0.051,0.386,0.113,0.555,0.139l0.023,0.227c-0.197-0.053-0.455-0.155-0.564-0.22
				L25.019,102.29z"/>
			<path fill="#1D1D1B" d="M26.624,103.28v-0.005l-0.142-0.263l0.155-0.039l0.176,0.33v0.174h-1.508v-0.197H26.624z"/>
		</g>
	</g>
	<path fill="#C05E61" d="M326.925,309.093c0,27.083-8.961,49.78-26.633,67.464c-23.211,23.208-59.596,35.476-105.219,35.476
		c-40.634,0-74.977-12.266-99.315-35.471c-20.678-19.998-32.536-46.096-32.536-71.602v-0.303h69.625v0.303
		c0,13.198,6.746,27.898,16.405,35.75c11.994,9.591,25.44,13.503,46.41,13.503c16.552,0,30.156-2.3,40.435-6.834
		c14.459-6.382,21.793-17.08,21.793-31.798c0-17.152-11.372-29.172-30.418-32.152c-10.256-1.558-21.266-2.81-31.911-4.02
		c-17.78-2.021-36.164-4.109-53.055-7.777c-41.47-8.768-70.436-42.608-70.436-82.295c0-28.214,10.261-50.864,31.368-69.247
		c22.833-19.829,56.005-30.749,93.404-30.749c39.408,0,75.436,13.487,96.377,36.08c17.297,18.532,27.219,41.614,27.219,63.327v0.303
		h-70.807v-0.303c0-10.339-4.027-19.728-12.311-28.703c-8.539-8.535-24.199-14.056-39.891-14.056c-10.585,0-20.584,0-31.737,4.697
		c-14.659,5.987-23.409,18.011-23.409,32.162c0,17.067,11.492,27.004,35.135,30.376c7.096,0.903,12.879,1.616,18.062,2.255
		c15.075,1.856,25.035,3.084,47.42,6.59c24.629,3.905,45.442,13.65,60.19,28.181C318.685,265.611,326.925,285.959,326.925,309.093z
		 M63.828,305.263c0.094,25.247,11.872,51.058,32.349,70.861c24.223,23.093,58.421,35.301,98.896,35.301
		c45.459,0,81.696-12.206,104.79-35.298c17.555-17.564,26.455-40.119,26.455-67.035c0-22.967-8.178-43.166-23.652-58.411
		c-14.658-14.441-35.355-24.128-59.858-28.014c-22.376-3.505-32.332-4.73-47.401-6.587c-5.183-0.639-10.968-1.351-18.067-2.257
		c-23.998-3.422-35.661-13.555-35.661-30.976c0-14.407,8.891-26.639,23.784-32.723c11.263-4.743,21.32-4.743,31.969-4.743
		c15.844,0,31.674,5.591,40.328,14.243c8.318,9.014,12.4,18.441,12.479,28.819h69.594c-0.092-21.472-9.941-44.276-27.055-62.612
		c-20.83-22.471-56.694-35.887-95.934-35.887c-37.253,0-70.284,10.868-93.007,30.601c-20.967,18.261-31.16,40.762-31.16,68.79
		c0,39.397,28.768,72.995,69.957,81.702c16.861,3.662,35.229,5.75,52.994,7.769c10.652,1.21,21.667,2.462,31.935,4.022
		c19.369,3.031,30.934,15.274,30.934,32.751c0,14.98-7.456,25.865-22.157,32.352c-10.355,4.569-24.041,6.887-40.678,6.887
		c-21.12,0-34.677-3.951-46.791-13.637c-9.719-7.9-16.528-22.631-16.63-35.919H63.828L63.828,305.263z"/>
	<rect x="12.145" y="72.223" fill="none" width="165.338" height="272.089"/>
</g>
</svg>
