<?xml version="1.0" encoding="utf-8"?>
<!-- Generator: Adobe Illustrator 16.0.0, SVG Export Plug-In . SVG Version: 6.00 Build 0)  -->
<!DOCTYPE svg PUBLIC "-//W3C//DTD SVG 1.1//EN" "http://www.w3.org/Graphics/SVG/1.1/DTD/svg11.dtd">
<svg version="1.1" id="Calque_1" xmlns="http://www.w3.org/2000/svg" xmlns:xlink="http://www.w3.org/1999/xlink" x="0px" y="0px"
	 width="241.262px" height="86.233px" viewBox="0 0 241.262 86.233" enable-background="new 0 0 241.262 86.233"
	 xml:space="preserve">
<g>
	<path d="M0.149,27.695h41.187c0.119-4.734-1.538-9.231-4.497-12.072c-2.13-2.012-5.089-3.786-9.113-3.786
		c-4.261,0-6.864,0.827-8.995,2.959c-1.301,1.3-2.367,2.957-2.958,5.206H1.57c0.354-3.668,2.84-8.521,5.207-11.362
		C11.984,2.485,19.678,0,27.489,0c8.403,0,14.558,2.959,19.409,7.575c6.154,5.918,9.469,14.557,9.469,24.617
		c0,9.822-2.959,18.581-8.877,24.617c-4.615,4.733-11.243,7.811-19.646,7.811c-9.113,0-17.397-3.668-22.486-11.36
		C0.859,46.511-0.205,39.53,0.031,31.837C0.031,31.837,0.149,28.997,0.149,27.695z M18.612,49.234
		c2.013,2.132,5.09,3.553,9.351,3.553c4.497,0,8.166-1.896,10.297-4.736c2.13-2.721,3.076-5.562,3.195-9.586h-26.63
		C14.943,43.08,16.246,46.632,18.612,49.234z"/>
	<path d="M110.344,57.52c-4.971,4.971-12.664,7.1-21.066,7.1c-7.812,0-14.794-2.247-19.884-7.1
		c-3.55-3.434-6.509-8.522-6.509-14.321h13.848c0,2.722,1.42,5.681,3.313,7.22c2.367,1.893,5.089,2.723,9.35,2.723
		c4.971,0,12.546-1.066,12.546-7.812c0-3.552-2.367-5.918-6.154-6.511c-5.444-0.827-11.599-1.184-17.043-2.366
		c-8.403-1.776-14.084-8.64-14.084-16.451c0-6.272,2.604-10.652,6.272-13.847C75.43,2.249,81.939,0,89.633,0
		c7.338,0,14.793,2.367,19.291,7.219c3.314,3.551,5.444,8.167,5.444,12.664h-14.084c0-2.368-1.065-4.261-2.485-5.8
		c-1.775-1.774-4.971-2.84-8.049-2.84c-2.129,0-4.142,0-6.391,0.947c-2.604,1.063-4.734,3.313-4.734,6.509
		c0,4.379,3.788,5.682,7.102,6.154c5.562,0.709,7.102,0.829,13.137,1.774c9.705,1.539,16.807,7.693,16.807,17.399
		C115.67,49.946,113.539,54.323,110.344,57.52z"/>
	<path d="M174.317,64.029c-6.392,0-9.941-4.024-10.415-8.641c-2.841,4.971-9.942,9.231-18.7,9.231
		c-14.676,0-22.25-9.231-22.25-19.29c0-11.717,9.113-18.465,20.829-19.292l18.108-1.302v-3.789c0-5.797-2.012-9.703-10.415-9.703
		c-6.864,0-10.889,3.076-11.243,8.758h-14.32C126.739,6.154,137.745,0,151.475,0c10.534,0,19.528,3.313,23.079,12.545
		c1.538,3.904,1.774,8.283,1.774,12.427v22.842c0,2.841,0.948,3.906,3.434,3.906c0.946,0,1.893-0.236,1.893-0.236v10.889
		C179.169,63.436,177.867,64.029,174.317,64.029z M161.89,35.742l-15.622,1.185c-4.497,0.354-8.877,3.077-8.877,8.047
		c0,4.733,4.143,7.692,8.758,7.692c9.232,0,15.741-4.97,15.741-14.083V35.742z"/>
	<path d="M236.527,54.679c-4.261,5.325-11.717,9.704-21.066,9.704c-9.351,0-17.162-4.497-21.423-9.704
		c-4.615-5.8-6.745-13.492-6.745-22.487s2.13-16.688,6.745-22.487C198.299,4.498,206.11,0,215.461,0
		c9.35,0,16.806,4.378,21.066,9.705c2.84,3.667,4.498,8.522,4.734,13.374h-14.558c-0.119-2.25-0.828-4.143-1.775-5.682
		c-1.775-2.722-4.971-4.615-9.468-4.615c-4.025,0-6.982,1.657-8.995,3.788c-3.551,3.904-4.143,9.822-4.143,15.622
		s0.592,11.6,4.143,15.504c2.013,2.13,4.97,3.906,8.995,3.906c4.497,0,7.692-1.896,9.468-4.615c0.947-1.539,1.656-3.434,1.775-5.682
		h14.558C241.025,46.157,239.367,51.009,236.527,54.679z"/>
</g>
<polygon fill="#E83D4B" points="36.943,69.73 28.184,69.73 11.457,86.233 26.859,86.233 "/>
</svg>
